<svg width="422" height="110" viewBox="0 0 422 110" fill="none" xmlns="http://www.w3.org/2000/svg">
<path d="M60.9288 80H51.5338L36.9496 66.0941H15.6499V59.243H43.5634C45.0105 59.243 46.3672 58.9716 47.6334 58.429C48.8996 57.8637 49.9963 57.1062 50.9233 56.1565C51.873 55.2069 52.6192 54.0989 53.1618 52.8327C53.7045 51.5439 53.9758 50.1759 53.9758 48.7288C53.9758 47.2817 53.7045 45.925 53.1618 44.6588C52.6192 43.3925 51.873 42.2959 50.9233 41.3688C49.9963 40.4192 48.8996 39.673 47.6334 39.1303C46.3672 38.5877 45.0105 38.3163 43.5634 38.3163H11.7495V80H4.79657V31.3634H43.5634C45.9602 31.3634 48.21 31.8269 50.3128 32.754C52.4157 33.6584 54.2472 34.9021 55.8073 36.4848C57.3901 38.045 58.6337 39.8765 59.5382 41.9793C60.4652 44.0822 60.9288 46.332 60.9288 48.7288C60.9288 50.8994 60.5557 52.9571 59.8095 54.9016C59.0633 56.8236 58.0345 58.5533 56.7231 60.0909C55.4116 61.6058 53.8628 62.8721 52.0765 63.8896C50.3128 64.8844 48.4022 65.5515 46.3446 65.8906L60.9288 80ZM122.231 80H71.9327V31.3634H122.231V38.3163H78.8856V73.0471H122.231V80ZM116.33 59.1751H82.3451V52.2222H116.33V59.1751ZM189.096 48.7288C189.096 51.1256 188.632 53.3867 187.705 55.5121C186.801 57.615 185.557 59.4578 183.975 61.0405C182.414 62.6007 180.583 63.833 178.48 64.7375C176.377 65.6419 174.127 66.0941 171.731 66.0941H143.817V59.243H171.731C173.178 59.243 174.534 58.9716 175.801 58.429C177.067 57.8637 178.163 57.1062 179.091 56.1565C180.04 55.2069 180.786 54.0989 181.329 52.8327C181.872 51.5439 182.143 50.1759 182.143 48.7288C182.143 47.2817 181.872 45.925 181.329 44.6588C180.786 43.3925 180.04 42.2959 179.091 41.3688C178.163 40.4192 177.067 39.673 175.801 39.1303C174.534 38.5877 173.178 38.3163 171.731 38.3163H139.917V80H132.964V31.3634H171.731C174.127 31.3634 176.377 31.8269 178.48 32.754C180.583 33.6584 182.414 34.9021 183.975 36.4848C185.557 38.045 186.801 39.8765 187.705 41.9793C188.632 44.0822 189.096 46.332 189.096 48.7288ZM254.028 80H247.075V66.0941H208.274V59.1751H247.075V38.3163H222.146C219.772 38.3163 217.533 38.7799 215.43 39.7069C213.327 40.6114 211.496 41.855 209.936 43.4378C208.376 44.9979 207.132 46.8294 206.205 48.9323C205.301 51.0351 204.848 53.2849 204.848 55.6817V80H197.895V55.6817C197.895 53.4432 198.178 51.2951 198.743 49.2375C199.331 47.1573 200.145 45.224 201.185 43.4378C202.248 41.6289 203.514 39.9896 204.984 38.5198C206.476 37.0275 208.116 35.75 209.902 34.6873C211.711 33.6245 213.644 32.8105 215.702 32.2452C217.759 31.6574 219.907 31.3634 222.146 31.3634H254.028V80ZM274.732 80H267.779V31.3634H274.732V80ZM344.649 80H335.254L320.67 66.0941H299.37V59.243H327.284C328.731 59.243 330.087 58.9716 331.354 58.429C332.62 57.8637 333.716 57.1062 334.644 56.1565C335.593 55.2069 336.339 54.0989 336.882 52.8327C337.425 51.5439 337.696 50.1759 337.696 48.7288C337.696 47.2817 337.425 45.925 336.882 44.6588C336.339 43.3925 335.593 42.2959 334.644 41.3688C333.716 40.4192 332.62 39.673 331.354 39.1303C330.087 38.5877 328.731 38.3163 327.284 38.3163H295.47V80H288.517V31.3634H327.284C329.68 31.3634 331.93 31.8269 334.033 32.754C336.136 33.6584 337.967 34.9021 339.528 36.4848C341.11 38.045 342.354 39.8765 343.258 41.9793C344.185 44.0822 344.649 46.332 344.649 48.7288C344.649 50.8994 344.276 52.9571 343.53 54.9016C342.784 56.8236 341.755 58.5533 340.443 60.0909C339.132 61.6058 337.583 62.8721 335.797 63.8896C334.033 64.8844 332.122 65.5515 330.065 65.8906L344.649 80Z" fill="#597FAD"/>
<path d="M416.446 51.0902C415.422 68.0421 389.027 90 389.027 90C389.027 90 362.405 68.0421 361.495 51.0902C360.584 34.1382 372.867 21.6234 389.141 21.6234C405.415 21.6234 417.47 34.1382 416.446 51.0902Z" fill="url(#paint0_linear_61_767)"/>
<mask id="mask0_61_767" style="mask-type:luminance" maskUnits="userSpaceOnUse" x="361" y="15" width="51" height="59">
<path d="M405.145 32.3048C413.905 41.0651 413.905 55.2685 405.145 64.0288C401.542 67.6318 397.018 69.7531 392.331 70.3923C391.887 70.4526 390.715 73.2809 390.269 73.3148C383.971 73.7946 376.841 68.5808 376.841 68.5808C374.226 70.1733 364.558 71.036 362.181 62.918C359.804 54.7995 364.169 29.5815 368.549 25.2014C371.834 21.9162 381.518 14.91 387.431 15.7602C397.287 17.1774 399.67 26.8294 405.145 32.3048Z" fill="white"/>
</mask>
<g mask="url(#mask0_61_767)">
<path d="M405.146 64.0288C413.906 55.2684 413.906 41.0651 405.146 32.3048C396.385 23.5444 382.182 23.5444 373.422 32.3048C364.661 41.0651 364.661 55.2684 373.422 64.0288C382.182 72.7891 396.385 72.7891 405.146 64.0288Z" fill="white"/>
</g>
<mask id="mask1_61_767" style="mask-type:luminance" maskUnits="userSpaceOnUse" x="358" y="17" width="56" height="54">
<path d="M411.716 48.1668C411.716 60.5558 401.672 70.5993 389.283 70.5993C384.188 70.5993 379.489 68.9003 375.722 66.0378C375.366 65.767 372.537 66.9378 372.198 66.6467C367.406 62.5328 366.051 53.8041 366.051 53.8041C363.075 53.081 355.629 46.8549 359.689 39.4335C363.748 32.0117 384.667 17.2666 390.861 17.2666C395.507 17.2666 407.309 19.1597 410.889 23.9424C416.856 31.9136 411.716 40.4234 411.716 48.1668Z" fill="white"/>
</mask>
<g mask="url(#mask1_61_767)">
<path d="M377.616 51.3981C377.616 51.3981 376.659 52.9721 375.698 54.5704C375.534 54.0457 375.053 52.0688 374.938 51.6647C374.396 49.7694 373.283 43.1208 373.283 43.1208L370.592 45.0164C370.592 45.0164 371.157 52.8678 371.563 56.1167C371.969 59.3656 372.361 62.8054 373.986 63.4822C375.61 64.1589 377.515 62.4945 378.192 61.6824C379.465 60.401 382.85 54.7659 382.85 54.7659L377.616 51.3981Z" fill="#F4B59C"/>
<path d="M373.282 43.1208C373.282 43.1208 374.396 49.7696 374.937 51.6647C375.053 52.0688 375.533 54.0457 375.698 54.5704C376.658 52.972 377.615 51.3981 377.615 51.3981L382.848 54.7659C382.848 54.7659 379.464 60.401 378.191 61.6824C377.625 62.3627 376.196 63.6405 374.793 63.6405C374.521 63.6405 374.249 63.5923 373.985 63.4823C372.36 62.8056 371.968 59.3658 371.562 56.1169C371.156 52.868 370.591 45.0166 370.591 45.0166L373.282 43.1208ZM373.954 41.5133L372.748 42.3624L370.057 44.258L369.628 44.5599L369.666 45.0829C369.689 45.4045 370.237 52.9958 370.642 56.2318L370.67 56.4607C371.12 60.0657 371.545 63.4706 373.628 64.3387C373.994 64.491 374.386 64.5682 374.793 64.5682C376.858 64.5682 378.584 62.6528 378.878 62.3077C380.208 60.9403 383.294 55.826 383.644 55.2437L384.107 54.4727L383.351 53.9859L378.117 50.6181L377.317 50.103L376.823 50.9161C376.817 50.9253 376.494 51.4576 376.038 52.211C375.943 51.8399 375.87 51.5519 375.829 51.4099C375.308 49.5859 374.208 43.0335 374.197 42.9674L373.954 41.5133Z" fill="#483E2E"/>
</g>
<mask id="mask2_61_767" style="mask-type:luminance" maskUnits="userSpaceOnUse" x="358" y="17" width="56" height="54">
<path d="M411.716 48.1668C411.716 60.5558 401.672 70.5993 389.283 70.5993C384.188 70.5993 379.489 68.9003 375.722 66.0378C375.366 65.767 372.537 66.9378 372.198 66.6467C367.406 62.5328 366.051 53.8041 366.051 53.8041C363.075 53.081 355.629 46.8549 359.689 39.4335C363.748 32.0117 384.667 17.2666 390.861 17.2666C395.507 17.2666 407.309 19.1597 410.889 23.9424C416.856 31.9136 411.716 40.4234 411.716 48.1668Z" fill="white"/>
</mask>
<g mask="url(#mask2_61_767)">
<path d="M369.644 47.6656C369.644 47.6656 369.723 50.4618 369.625 51.0985C369.625 51.0985 371.683 51.1443 373.314 50.6154C374.939 50.0885 375.29 49.2101 375.29 49.2101L373.415 45.6575L369.644 47.6656Z" fill="#483E2E"/>
</g>
<mask id="mask3_61_767" style="mask-type:luminance" maskUnits="userSpaceOnUse" x="358" y="17" width="56" height="54">
<path d="M411.716 48.1668C411.716 60.5558 401.672 70.5993 389.283 70.5993C384.188 70.5993 379.489 68.9003 375.722 66.0378C375.366 65.767 372.537 66.9378 372.198 66.6467C367.406 62.5328 366.051 53.8041 366.051 53.8041C363.075 53.081 355.629 46.8549 359.689 39.4335C363.748 32.0117 384.667 17.2666 390.861 17.2666C395.507 17.2666 407.309 19.1597 410.889 23.9424C416.856 31.9136 411.716 40.4234 411.716 48.1668Z" fill="white"/>
</mask>
<g mask="url(#mask3_61_767)">
<path d="M367.2 46.6219L395.659 35.84C396.044 35.6994 396.308 35.3721 396.334 35.0066L396.507 32.278C396.547 32.0533 396.687 31.8475 396.903 31.7133L397.69 31.2197C397.77 31.1694 397.859 31.1404 397.95 31.1348L402.68 30.8399C402.804 30.8322 402.86 30.9715 402.759 31.0376L400.207 32.7196C399.836 32.964 399.64 33.3634 399.692 33.7651L399.782 34.4532C399.835 34.8601 400.136 35.2049 400.566 35.3523L401.581 35.7001C401.972 35.8342 402.416 35.7864 402.767 35.5726L405.37 33.985C405.444 33.9402 405.539 34.0003 405.514 34.0756L404.406 37.4141C404.382 37.4717 404.342 37.5188 404.283 37.5478L402.341 38.5609C402.13 38.6671 401.887 38.7042 401.655 38.6553L398.455 38.018C398.281 37.9875 398.114 37.9887 397.949 38.0322C397.877 38.0453 397.814 38.0672 397.75 38.0945L368.84 50.0649C368.24 50.3223 367.528 50.0943 367.266 49.5732L367.244 49.5307L366.542 47.9884C366.296 47.4612 366.592 46.8477 367.2 46.6219Z" fill="#BCBCBC"/>
<path d="M401.576 35.7006L401.005 35.5049C401.073 35.5431 401.144 35.5778 401.221 35.6042L402.236 35.9522C402.628 36.0863 403.072 36.0385 403.423 35.8246L405.313 34.672L405.511 34.0751C405.536 33.9998 405.441 33.9397 405.368 33.9845L402.763 35.5731C402.412 35.7869 401.968 35.8348 401.576 35.7006Z" fill="white"/>
<path d="M367.927 49.8255L367.905 49.783L367.202 48.2407C366.956 47.7128 367.253 47.0993 367.86 46.8737L396.32 36.0915C396.705 35.9509 396.969 35.6236 396.995 35.258L397.168 32.5294C397.209 32.3047 397.348 32.0989 397.564 31.9646L398.351 31.471C398.431 31.4208 398.52 31.3918 398.611 31.3861L402.61 31.1368L402.761 31.0375C402.861 30.9714 402.805 30.8321 402.681 30.8398L397.952 31.1347C397.86 31.1404 397.772 31.1694 397.692 31.2196L396.904 31.7132C396.688 31.8475 396.549 32.0531 396.509 32.278L396.335 35.0066C396.309 35.3724 396.046 35.6995 395.661 35.8401L367.2 46.6223C366.593 46.8479 366.297 47.4614 366.543 47.9893L367.245 49.5315L367.267 49.5741C367.439 49.9163 367.806 50.1281 368.207 50.1632C368.091 50.0716 367.994 49.9585 367.927 49.8255Z" fill="white"/>
<path d="M402.691 30.8397C402.808 30.8397 402.858 30.9734 402.761 31.0378L400.208 32.7197C399.838 32.964 399.641 33.3636 399.693 33.7652L399.783 34.4533C399.836 34.8602 400.137 35.205 400.567 35.3525L401.582 35.7003C401.728 35.7506 401.883 35.7752 402.036 35.7752C402.293 35.7752 402.549 35.7065 402.768 35.5728L405.372 33.9852C405.389 33.9744 405.408 33.9697 405.426 33.9697C405.484 33.9697 405.534 34.0183 405.515 34.0758L404.407 37.4143C404.383 37.4719 404.343 37.519 404.285 37.548L402.342 38.5611C402.193 38.6362 402.028 38.6767 401.862 38.6767C401.793 38.6767 401.724 38.6697 401.656 38.6554L398.456 38.0182C398.378 38.0044 398.302 37.9973 398.226 37.9973C398.133 37.9973 398.042 38.0084 397.95 38.0323C397.878 38.0455 397.816 38.0673 397.751 38.0946L368.842 50.0651C368.673 50.1374 368.496 50.1713 368.322 50.1713C367.877 50.1713 367.456 49.9481 367.267 49.5734L367.245 49.5308L366.543 47.9886C366.297 47.4608 366.593 46.8473 367.201 46.6217L395.66 35.8398C396.045 35.6992 396.309 35.3719 396.335 35.0064L396.508 32.2778C396.548 32.0531 396.688 31.8473 396.904 31.713L397.691 31.2195C397.771 31.1692 397.86 31.1402 397.951 31.1345L402.681 30.8397C402.684 30.8397 402.687 30.8397 402.691 30.8397ZM402.691 30.039C402.671 30.039 402.651 30.0395 402.631 30.0408L397.901 30.3357C397.678 30.3497 397.458 30.4209 397.266 30.5414L396.479 31.0349C396.079 31.2833 395.802 31.6852 395.72 32.1358L395.712 32.1812L395.709 32.2271L395.536 34.9557C395.534 34.9851 395.485 35.0514 395.386 35.0879L395.381 35.0896L395.377 35.0913L366.917 45.8731C366.401 46.065 365.987 46.4554 365.787 46.9422C365.601 47.3949 365.612 47.8867 365.818 48.3272L366.517 49.8628L366.526 49.8826L366.536 49.9018L366.556 49.94C366.875 50.5673 367.567 50.9724 368.322 50.9724C368.61 50.9724 368.889 50.9155 369.153 50.8034L398.058 38.8349C398.087 38.8226 398.095 38.8204 398.096 38.82L398.126 38.8144L398.155 38.8068C398.177 38.801 398.2 38.7982 398.226 38.7982C398.251 38.7982 398.28 38.8008 398.311 38.8059L401.5 39.4409C401.613 39.4646 401.737 39.4776 401.862 39.4776C402.15 39.4776 402.441 39.4081 402.702 39.2765L402.707 39.2738L402.712 39.2712L404.65 38.2609C404.875 38.1466 405.047 37.9609 405.146 37.7233L405.158 37.6952L405.167 37.6664L406.275 34.3279C406.364 34.0616 406.318 33.7669 406.154 33.5396C405.987 33.3076 405.715 33.169 405.426 33.169C405.26 33.169 405.097 33.2148 404.955 33.3014L402.352 34.8891C402.261 34.944 402.149 34.9744 402.037 34.9744C401.969 34.9744 401.903 34.9636 401.842 34.9427L400.827 34.5949C400.689 34.5475 400.591 34.4512 400.578 34.3496L400.488 33.6613C400.475 33.5668 400.538 33.4621 400.65 33.388L403.202 31.7061C403.54 31.4827 403.691 31.0745 403.575 30.69C403.458 30.3007 403.103 30.039 402.691 30.039Z" fill="#483E2E"/>
<path d="M369.832 48.4469L369.145 47.0519L394.99 37.0559L395.535 38.0389L369.832 48.4469Z" fill="#999999"/>
<path d="M398.696 38.919L399.629 38.2638L396.579 37.4893L397.349 38.5614L398.696 38.919Z" fill="#483E2E"/>
<path d="M401.191 35.564L398.518 34.6822L399.923 34.0891L400.784 34.4207L401.191 35.564Z" fill="#483E2E"/>
</g>
<mask id="mask4_61_767" style="mask-type:luminance" maskUnits="userSpaceOnUse" x="358" y="17" width="56" height="54">
<path d="M411.716 48.1668C411.716 60.5558 401.672 70.5993 389.283 70.5993C384.188 70.5993 379.489 68.9003 375.722 66.0378C375.366 65.767 372.537 66.9378 372.198 66.6467C367.406 62.5328 366.051 53.8041 366.051 53.8041C363.075 53.081 355.629 46.8549 359.689 39.4335C363.748 32.0117 384.667 17.2666 390.861 17.2666C395.507 17.2666 407.309 19.1597 410.889 23.9424C416.856 31.9136 411.716 40.4234 411.716 48.1668Z" fill="white"/>
</mask>
<g mask="url(#mask4_61_767)">
<path d="M395.123 41.6757C393.795 40.5874 393.293 35.4401 393.293 35.4401L392.201 35.5427C392.345 35.4576 392.484 35.3625 392.615 35.2512C393.316 34.6571 393.684 33.77 394.028 32.918C394.605 31.4891 395.925 31.2812 396.501 29.8524C396.877 28.9203 396.516 26.6942 396.293 25.7144C396 24.4254 394.746 23.586 393.503 23.1366C391.68 22.4777 388.425 22.0167 386.719 23.2538C386.109 23.6962 386.05 24.3595 385.996 25.0618C385.899 26.3037 385.707 27.1415 385.651 28.3855C385.582 29.9366 385.287 30.9398 385.255 32.4919C385.244 32.9965 385.644 34.7014 386.238 35.3618C386.798 35.9836 387.258 35.8235 388.088 35.9289C388.454 36.8371 387.524 40.2095 387.412 40.765C387.299 41.3205 384.371 43.7809 384.371 43.7809L384.91 48.2016L390.686 50.122L401.272 44.4409C401.272 44.4409 396.45 42.764 395.123 41.6757Z" fill="#F4B59C"/>
<path d="M389.739 22.4786C391.097 22.4786 392.512 22.7784 393.503 23.1367C394.746 23.5861 396 24.4254 396.293 25.7144C396.516 26.6943 396.878 28.9206 396.502 29.8524C395.925 31.2813 394.605 31.4892 394.029 32.918C393.685 33.77 393.316 34.6571 392.616 35.2512C392.484 35.3625 392.345 35.4576 392.201 35.5427L393.294 35.4402C393.294 35.4402 393.564 39.7841 394.891 40.8724C396.218 41.9607 399.403 44.1721 399.403 44.1721L390.687 50.1221L384.91 48.2017L384.802 43.1412C384.802 43.1412 387.829 41.4582 387.942 40.9027C388.054 40.3472 388.455 36.8374 388.089 35.9289C387.259 35.8235 386.799 35.9837 386.239 35.3619C385.645 34.7014 385.245 32.9966 385.256 32.4919C385.288 30.9398 385.582 29.9364 385.652 28.3856C385.708 27.1413 385.9 26.3035 385.997 25.0619C386.051 24.3595 386.11 23.6963 386.72 23.2538C387.498 22.6894 388.599 22.4784 389.739 22.4786ZM389.739 21.5509C388.246 21.5509 387.046 21.8712 386.175 22.5028C385.21 23.2025 385.13 24.2356 385.071 24.9901C385.031 25.5117 384.971 25.9704 384.913 26.4137C384.837 27.0004 384.758 27.6074 384.725 28.3439C384.694 29.0318 384.617 29.5993 384.536 30.2002C384.443 30.8872 384.346 31.5978 384.328 32.4727C384.315 33.0834 384.728 35.0695 385.549 35.9826C386.155 36.6557 386.778 36.7615 387.305 36.799C387.358 37.8057 387.192 39.7662 387.06 40.5643C386.703 40.9176 385.4 41.7475 384.351 42.3303L383.862 42.6019L383.874 43.1609L383.983 48.2215L383.997 48.8756L384.617 49.082L390.394 51.0024L390.83 51.1475L391.21 50.8883L399.926 44.9384L401.039 44.1787L399.932 43.4103C399.9 43.3882 396.763 41.2071 395.479 40.155C395.07 39.8195 394.387 38.0708 394.22 35.3828L394.182 34.7813C394.484 34.2705 394.699 33.7364 394.889 33.2654C395.093 32.7594 395.437 32.4629 395.872 32.0879C396.396 31.6354 396.99 31.1226 397.362 30.1998C397.912 28.837 397.322 26.053 397.198 25.5089C396.875 24.0877 395.675 22.9355 393.819 22.2644C392.583 21.8175 391.058 21.5509 389.739 21.5509Z" fill="#483E2E"/>
<path d="M399.387 27.6375C399.516 26.2498 399.474 24.8363 397.953 24.4673C396.938 20.409 392.288 19.869 390.112 20.04C386.032 20.3605 385.483 22.7873 385.483 22.7873C385.483 22.7873 386.167 22.6215 385.987 23.1456C385.69 24.0102 386.097 24.2699 386.047 24.4405C386.047 24.4405 388.48 23.1807 390.186 23.5438C391.893 23.9068 395.531 25.8482 394.694 25.8752C393.856 25.9021 393.367 26.3502 393.375 27.2879C393.38 27.7963 394.364 28.4181 393.611 29.5481C393.327 29.9733 392.953 29.9835 392.433 31.149C391.945 32.2428 393.046 33.1737 390.503 35.1984C389.84 35.7258 389.033 35.7151 387.852 35.4513C387.622 35.395 387.427 35.3324 387.295 35.291C385.966 34.8712 385.988 35.2582 386.24 35.3619C386.24 35.3619 386.36 35.546 387.118 36.2003C388.161 37.1018 389.758 37.1354 390.637 37.762C391.381 38.2929 392.323 40.3531 392.517 41.0812C392.792 42.1119 393.402 44.173 389.332 45.3448C389.332 45.3448 393.479 45.296 394.275 45.2571C397.659 45.0918 398.407 42.7269 398.695 42.3704C398.564 42.0805 395.416 41.0295 395.223 40.4995C394.784 39.2913 394.641 37.6276 394.547 37.1671C394.441 36.6552 394.921 33.6742 395.364 33.2279C395.538 33.0527 396.879 31.8173 397.61 30.9813C398.063 30.4635 399.206 29.5653 399.387 27.6375ZM395.857 29.6947C395.533 30.9996 394.236 31.3142 394.236 31.3142C394.668 30.9293 395.01 30.6326 395.215 30.1788C395.508 29.5317 395.643 28.9149 395.371 28.6505C395.165 28.4493 394.681 28.4916 394.533 28.3697C394.533 28.3697 394.989 28.0348 395.369 28.1873C396.025 28.45 396.106 28.691 395.857 29.6947Z" fill="#483E2E"/>
<path d="M391.306 28.3046C391.306 28.3046 390.819 28.5628 390.547 28.6631C390.276 28.7633 389.694 28.8813 389.561 28.9049C389.034 28.9987 388.644 28.7316 388.505 28.5739C388.365 28.4161 388.351 27.8633 388.302 27.8284C388.253 27.7935 387.967 27.4551 387.835 27.2823C387.835 27.2823 388.633 26.7717 388.988 26.6951C389.344 26.6186 390.659 27.0054 390.952 27.0885C391.245 27.1716 391.648 27.637 391.648 27.637C391.599 27.6403 391.062 27.5092 390.898 27.5114C390.734 27.5135 390.427 27.7012 390.427 27.7012C390.427 27.7012 390.624 27.7415 390.86 27.8657C391.299 28.0961 391.306 28.3046 391.306 28.3046Z" fill="#483E2E"/>
<path d="M387.056 31.0007C387.221 30.9892 387.467 31.2032 387.353 31.3247C387.293 31.3899 386.963 31.6609 386.584 31.5911C386.257 31.5309 385.872 31.1414 385.826 31.0393C385.751 30.874 386.891 31.0123 387.056 31.0007Z" fill="#483E2E"/>
<path d="M385.775 32.4667C385.775 32.4667 385.56 32.1754 385.723 31.9592C385.883 31.7467 386.164 32.1359 386.472 32.0017C386.83 31.8455 387.044 31.8874 387.43 32.1021C387.958 32.3955 388.353 32.5345 388.56 32.6307C388.56 32.6307 387.843 32.6591 387.179 32.6122C386.15 32.5397 385.775 32.4667 385.775 32.4667Z" fill="#483E2E"/>
<path d="M387.521 33.2741C387.601 33.3644 387.227 33.525 387.068 33.6182C386.909 33.7116 386.298 33.9044 386.341 33.4838C386.358 33.3182 386.22 33.2213 386.178 33.0295C386.174 33.0147 386.175 33.0001 386.174 32.9852C386.334 32.9582 386.81 33.0854 386.93 33.1142C387.224 33.1849 387.44 33.1838 387.521 33.2741Z" fill="#483E2E"/>
<path d="M385.646 28.0073C385.38 27.9569 385.219 27.75 385.219 27.75C385.374 27.7276 385.595 27.6881 385.599 27.567C385.591 27.3119 385.546 27.0637 385.477 26.8304C385.69 26.7514 387.069 27.1549 387.013 27.2738C386.838 27.6416 387.129 27.8426 386.755 28.1906C386.595 28.3389 386.207 28.484 385.903 28.5861C385.933 28.5259 385.956 28.4761 385.968 28.4467C386.053 28.2255 385.763 28.2276 385.646 28.0073Z" fill="#483E2E"/>
</g>
<mask id="mask5_61_767" style="mask-type:luminance" maskUnits="userSpaceOnUse" x="358" y="17" width="56" height="54">
<path d="M411.716 48.1668C411.716 60.5558 401.672 70.5993 389.283 70.5993C384.188 70.5993 379.489 68.9003 375.722 66.0378C375.366 65.767 372.537 66.9378 372.198 66.6467C367.406 62.5328 366.051 53.8041 366.051 53.8041C363.075 53.081 355.629 46.8549 359.689 39.4335C363.748 32.0117 384.667 17.2666 390.861 17.2666C395.507 17.2666 407.309 19.1597 410.889 23.9424C416.856 31.9136 411.716 40.4234 411.716 48.1668Z" fill="white"/>
</mask>
<g mask="url(#mask5_61_767)">
<path d="M402.004 57.718C401.997 57.552 402.121 57.3447 402.282 57.353C404.017 57.4407 406.219 56.4124 407.963 55.7646C407.683 53.1227 406.856 49.8241 406.375 48.6474C404.975 45.2222 403.619 43.9274 401.782 43.2139C400.316 42.644 396.191 40.4559 396.191 40.4559C396.191 40.4559 397.144 44.9707 390.52 44.9707C385.108 44.9707 385.695 41.287 385.695 41.287L380.651 44.6218C380.425 44.8116 380.202 45.0331 379.982 45.2842C379.653 45.661 379.331 46.1048 379.014 46.6101C378.908 46.7785 378.802 46.9537 378.697 47.1357C378.382 47.6813 375.979 52.6248 375.729 53.244C376.711 55.6152 378.872 57.4093 380.396 57.7479C381.087 57.0449 380.829 58.9356 381.024 58.5019C381.024 58.5019 379.955 76.7772 379.527 76.5073C379.524 76.6751 403.082 77.1492 403.082 77.1492C403.082 77.1492 402.159 61.7281 402.004 57.718Z" fill="#483E2E"/>
</g>
<mask id="mask6_61_767" style="mask-type:luminance" maskUnits="userSpaceOnUse" x="358" y="17" width="56" height="54">
<path d="M411.716 48.1668C411.716 60.5558 401.672 70.5993 389.283 70.5993C384.188 70.5993 379.489 68.9003 375.722 66.0378C375.366 65.767 372.537 66.9378 372.198 66.6467C367.406 62.5328 366.051 53.8041 366.051 53.8041C363.075 53.081 355.629 46.8549 359.689 39.4335C363.748 32.0117 384.667 17.2666 390.861 17.2666C395.507 17.2666 407.309 19.1597 410.889 23.9424C416.856 31.9136 411.716 40.4234 411.716 48.1668Z" fill="white"/>
</mask>
<g mask="url(#mask6_61_767)">
<path d="M367.68 42.8212C368.035 42.665 368.3 43.7223 368.532 44.3422C368.779 45.0017 369.521 45.2611 369.931 44.8616C369.931 44.8616 370.141 45.3148 370.861 45.159C371.597 45 371.968 44.4102 371.968 44.4102C371.968 44.4102 372.547 44.2627 372.95 44.0195C373.353 43.776 373.578 42.9266 373.578 42.9266C373.578 42.9266 373.898 43.0857 374.516 42.4765C375.124 41.8776 374.404 40.8637 373.607 40.6458C372.853 40.4396 371.815 40.6148 371.367 40.7682C370.923 40.92 370.304 40.9235 369.651 41.0413C369.013 41.1563 368.633 41.3863 368.139 41.7652C367.641 42.1468 367.68 42.8212 367.68 42.8212Z" fill="#4D66C4"/>
<path d="M372.809 40.5517C373.085 40.5517 373.362 40.5783 373.608 40.6457C374.406 40.8637 375.125 41.8776 374.517 42.4765C374.111 42.8768 373.834 42.9453 373.691 42.9453C373.617 42.9453 373.579 42.9266 373.579 42.9266C373.579 42.9266 373.435 43.3704 373.032 43.6138C372.905 43.6904 372.762 43.7168 372.627 43.7168C372.331 43.7168 372.067 43.5925 372.067 43.5925C372.067 43.5925 371.902 44.2697 371.167 44.4285C370.979 44.4392 370.82 44.4434 370.686 44.4434C370.285 44.4434 370.116 44.4071 370.116 44.4071C369.899 44.619 369.536 44.7732 369.207 44.7732C368.915 44.7732 368.649 44.6519 368.533 44.3421C368.317 43.7642 368.071 42.8057 367.752 42.8057C367.729 42.8057 367.705 42.8107 367.681 42.8212C367.681 42.8212 367.642 42.1468 368.14 41.7652C368.634 41.3862 369.015 41.1563 369.652 41.0413C370.305 40.9235 370.924 40.92 371.368 40.7681C371.67 40.6649 372.239 40.5517 372.809 40.5517ZM372.809 39.624C372.099 39.624 371.427 39.7676 371.068 39.8904C370.895 39.9495 370.606 39.9823 370.299 40.017C370.054 40.0447 369.776 40.0761 369.488 40.1282C368.681 40.2737 368.175 40.5685 367.575 41.0289C366.712 41.6906 366.748 42.7557 366.755 42.8751L366.833 44.2095L367.415 43.9527C367.455 44.0644 367.493 44.1752 367.521 44.259C367.57 44.4037 367.618 44.5435 367.664 44.6672C367.902 45.3049 368.494 45.7009 369.207 45.7009C369.609 45.7009 370.03 45.5772 370.382 45.3643C370.47 45.3684 370.571 45.3711 370.686 45.3711C370.851 45.3711 371.031 45.3656 371.219 45.3549L371.291 45.3508L371.362 45.3355C371.889 45.2216 372.268 44.9458 372.527 44.6421C372.56 44.6436 372.593 44.6445 372.626 44.6445C372.953 44.6445 373.251 44.5649 373.511 44.408C373.802 44.2324 374.012 44.0063 374.16 43.7969C374.494 43.6896 374.831 43.469 375.168 43.1373C375.611 42.7014 375.772 42.0979 375.611 41.4811C375.404 40.6889 374.681 39.9775 373.853 39.751C373.545 39.6666 373.194 39.624 372.809 39.624Z" fill="#483E2E"/>
<path d="M369.654 45.4955C370.334 44.3503 369.259 42.528 368.792 42.1019C368.792 42.1019 369.412 42.2289 369.839 42.768C370.295 43.3436 370.516 44.3932 370.905 44.4454C371.303 44.4988 371.756 44.4469 371.638 43.8253C371.525 43.2345 370.346 41.5626 370.346 41.5626C370.346 41.5626 370.858 41.6918 371.266 42.0701C371.695 42.4676 372.61 43.769 372.862 43.661C373.631 43.332 372.784 41.5371 371.805 41.1502C371.805 41.1502 372.45 41.0195 372.884 41.3089C373.264 41.5626 373.779 42.1242 373.919 42.2337C374.372 42.5876 374.915 42.2337 374.518 41.2582C374.293 40.3205 374.92 40.8799 374.92 40.8799C374.92 40.8799 375.653 41.4136 374.553 42.7346C373.398 44.1216 372.28 44.4284 372.28 44.4284L369.654 45.4955Z" fill="#483E2E"/>
</g>
<mask id="mask7_61_767" style="mask-type:luminance" maskUnits="userSpaceOnUse" x="358" y="17" width="56" height="54">
<path d="M411.716 48.1668C411.716 60.5558 401.672 70.5993 389.283 70.5993C384.188 70.5993 379.489 68.9003 375.722 66.0378C375.366 65.767 372.537 66.9378 372.198 66.6467C367.406 62.5328 366.051 53.8041 366.051 53.8041C363.075 53.081 355.629 46.8549 359.689 39.4335C363.748 32.0117 384.667 17.2666 390.861 17.2666C395.507 17.2666 407.309 19.1597 410.889 23.9424C416.856 31.9136 411.716 40.4234 411.716 48.1668Z" fill="white"/>
</mask>
<g mask="url(#mask7_61_767)">
<path d="M376.541 44.0976C376.346 44.2638 375.975 44.8738 375.607 45.1328C374.867 45.6534 373.959 46.398 373.255 46.7774C373.063 46.8813 369.851 48.7509 369.058 48.7236C369.25 49.2075 369.371 49.6399 369.326 49.9022C369.231 50.4703 370.287 51.3886 370.287 51.3886L371.051 50.1863C373.016 49.1069 374.975 50.6678 375.285 49.3314C375.599 47.9783 376.44 47.8771 377.166 46.9633C377.559 46.4683 378.276 44.3471 378.184 43.909C378.056 43.299 377.205 43.5316 376.541 44.0976Z" fill="#483E2E"/>
</g>
<mask id="mask8_61_767" style="mask-type:luminance" maskUnits="userSpaceOnUse" x="358" y="17" width="56" height="54">
<path d="M411.716 48.1668C411.716 60.5558 401.672 70.5993 389.283 70.5993C384.188 70.5993 379.489 68.9003 375.722 66.0378C375.366 65.767 372.537 66.9378 372.198 66.6467C367.406 62.5328 366.051 53.8041 366.051 53.8041C363.075 53.081 355.629 46.8549 359.689 39.4335C363.748 32.0117 384.667 17.2666 390.861 17.2666C395.507 17.2666 407.309 19.1597 410.889 23.9424C416.856 31.9136 411.716 40.4234 411.716 48.1668Z" fill="white"/>
</mask>
<g mask="url(#mask8_61_767)">
<path d="M376.146 58.5892C376.146 58.5892 375.543 53.5063 374.937 51.6647L376.02 51.4781C376.02 51.4781 376.436 53.1384 376.521 54.5191C376.684 57.1385 376.146 58.5892 376.146 58.5892Z" fill="#483E2E"/>
</g>
<mask id="mask9_61_767" style="mask-type:luminance" maskUnits="userSpaceOnUse" x="358" y="17" width="56" height="54">
<path d="M411.716 48.1668C411.716 60.5558 401.672 70.5993 389.283 70.5993C384.188 70.5993 379.489 68.9003 375.722 66.0378C375.366 65.767 372.537 66.9378 372.198 66.6467C367.406 62.5328 366.051 53.8041 366.051 53.8041C363.075 53.081 355.629 46.8549 359.689 39.4335C363.748 32.0117 384.667 17.2666 390.861 17.2666C395.507 17.2666 407.309 19.1597 410.889 23.9424C416.856 31.9136 411.716 40.4234 411.716 48.1668Z" fill="white"/>
</mask>
<g mask="url(#mask9_61_767)">
<path d="M371.247 50.3737C371.352 51.3391 372.769 54.1355 372.769 54.1355C372.769 54.1355 372.664 52.7706 372.664 51.7052C372.664 50.6399 372.62 49.7429 372.62 49.7429L371.247 50.3737Z" fill="#483E2E"/>
</g>
<mask id="mask10_61_767" style="mask-type:luminance" maskUnits="userSpaceOnUse" x="358" y="17" width="56" height="54">
<path d="M411.716 48.1668C411.716 60.5558 401.672 70.5993 389.283 70.5993C384.188 70.5993 379.489 68.9003 375.722 66.0378C375.366 65.767 372.537 66.9378 372.198 66.6467C367.406 62.5328 366.051 53.8041 366.051 53.8041C363.075 53.081 355.629 46.8549 359.689 39.4335C363.748 32.0117 384.667 17.2666 390.861 17.2666C395.507 17.2666 407.309 19.1597 410.889 23.9424C416.856 31.9136 411.716 40.4234 411.716 48.1668Z" fill="white"/>
</mask>
<g mask="url(#mask10_61_767)">
<path d="M384.727 43.301C384.248 43.8831 383.494 50.6246 383.297 52.5273C383.297 52.5273 384.064 53.0221 387.032 53.1783C388.903 53.2767 393.662 53.244 395.215 52.5698C395.215 52.5698 395.823 49.3988 396.749 47.0973C397.676 44.7957 398.441 42.5934 398.441 42.5934L400.267 43.1135C400.267 43.1135 399.496 45.4941 399.021 48.9097C398.581 52.0733 398.053 53.1221 399.426 55.1723C400.799 57.2225 402.579 58.6507 402.579 58.6507C402.579 58.6507 403.135 61.4131 403.447 64.0356C403.706 66.2145 403.978 71.8413 403.978 71.8413C403.978 71.8413 395.033 72.9239 390.104 72.6992C385.28 72.4795 379.568 72.2989 379.568 72.2989C379.568 72.2989 379.838 58.46 379.697 56.2819C379.556 54.1039 380.687 50.1841 381.616 47.9774C382.546 45.7705 382.948 43.8257 382.948 43.8257L384.727 43.301Z" fill="#4892EA"/>
</g>
<mask id="mask11_61_767" style="mask-type:luminance" maskUnits="userSpaceOnUse" x="358" y="17" width="56" height="54">
<path d="M411.716 48.1668C411.716 60.5558 401.672 70.5993 389.283 70.5993C384.188 70.5993 379.489 68.9003 375.722 66.0378C375.366 65.767 372.537 66.9378 372.198 66.6467C367.406 62.5328 366.051 53.8041 366.051 53.8041C363.075 53.081 355.629 46.8549 359.689 39.4335C363.748 32.0117 384.667 17.2666 390.861 17.2666C395.507 17.2666 407.309 19.1597 410.889 23.9424C416.856 31.9136 411.716 40.4234 411.716 48.1668Z" fill="white"/>
</mask>
<g mask="url(#mask11_61_767)">
<path d="M384.727 43.301C384.248 43.8831 383.494 50.6246 383.297 52.5273C383.297 52.5273 384.064 53.0221 387.032 53.1783C388.903 53.2767 393.662 53.244 395.215 52.5698C395.215 52.5698 395.823 49.3988 396.749 47.0973C397.676 44.7957 398.441 42.5934 398.441 42.5934L400.267 43.1135C400.267 43.1135 399.496 45.4941 399.021 48.9097C398.581 52.0733 398.053 53.1221 399.426 55.1723C400.799 57.2225 402.579 58.6507 402.579 58.6507C402.579 58.6507 403.135 61.4131 403.447 64.0356C403.706 66.2145 403.978 71.8413 403.978 71.8413C403.978 71.8413 395.033 72.9239 390.104 72.6992C385.28 72.4795 379.568 72.2989 379.568 72.2989C379.568 72.2989 379.838 58.46 379.697 56.2819C379.556 54.1039 380.687 50.1841 381.616 47.9774C382.546 45.7705 382.948 43.8257 382.948 43.8257L384.727 43.301Z" fill="#4892EA"/>
</g>
<mask id="mask12_61_767" style="mask-type:luminance" maskUnits="userSpaceOnUse" x="358" y="17" width="56" height="54">
<path d="M411.716 48.1668C411.716 60.5558 401.672 70.5993 389.283 70.5993C384.188 70.5993 379.489 68.9003 375.722 66.0378C375.366 65.767 372.537 66.9378 372.198 66.6467C367.406 62.5328 366.051 53.8041 366.051 53.8041C363.075 53.081 355.629 46.8549 359.689 39.4335C363.748 32.0117 384.667 17.2666 390.861 17.2666C395.507 17.2666 407.309 19.1597 410.889 23.9424C416.856 31.9136 411.716 40.4234 411.716 48.1668Z" fill="white"/>
</mask>
<g mask="url(#mask12_61_767)">
<path d="M383.042 53.2508C383.042 53.2508 383.818 53.9929 387.443 54.4657C389.609 54.7482 394.486 54.6217 396.039 53.9475C396.039 53.9475 396.991 50.2559 397.663 47.8675C398.305 45.591 398.942 44.4851 398.942 44.4851L400.08 44.4617C400.221 43.9475 400.267 43.1132 400.267 43.1132L398.441 42.593C398.441 42.593 397.676 44.7953 396.75 47.0969C395.823 49.3985 395.215 52.5695 395.215 52.5695C393.662 53.2436 388.903 53.2766 387.032 53.178C385.36 53.09 384.387 52.8946 383.856 52.7405C383.822 53.0534 383.064 53.0414 383.042 53.2508Z" fill="#4D66C4"/>
<path d="M380.061 72.3146C380.119 69.1096 380.289 59.1122 380.171 57.2884C380.03 55.1104 381.322 51.1234 382.027 48.8351C382.689 46.688 383.461 45.9115 383.461 45.9115L384.395 45.3508C384.525 44.6958 384.616 43.4354 384.726 43.301L382.948 43.8253C382.948 43.8253 382.189 45.7461 381.453 47.9857C380.705 50.2607 379.556 54.1037 379.697 56.2818C379.838 58.4598 379.568 72.2987 379.568 72.2987C379.568 72.2987 379.747 72.3042 380.061 72.3146Z" fill="#4D66C4"/>
</g>
<mask id="mask13_61_767" style="mask-type:luminance" maskUnits="userSpaceOnUse" x="358" y="17" width="56" height="54">
<path d="M411.716 48.1668C411.716 60.5558 401.672 70.5993 389.283 70.5993C384.188 70.5993 379.489 68.9003 375.722 66.0378C375.366 65.767 372.537 66.9378 372.198 66.6467C367.406 62.5328 366.051 53.8041 366.051 53.8041C363.075 53.081 355.629 46.8549 359.689 39.4335C363.748 32.0117 384.667 17.2666 390.861 17.2666C395.507 17.2666 407.309 19.1597 410.889 23.9424C416.856 31.9136 411.716 40.4234 411.716 48.1668Z" fill="white"/>
</mask>
<g mask="url(#mask13_61_767)">
<path d="M398.438 42.5932L400.264 43.1134C400.264 43.1134 399.493 45.4939 399.018 48.9095C398.578 52.0731 398.05 53.1219 399.423 55.1721C400.796 57.2223 402.576 58.6505 402.576 58.6505C402.576 58.6505 403.132 61.4129 403.444 64.0354C403.703 66.2143 403.975 71.8412 403.975 71.8412C403.975 71.8412 396.632 72.7298 391.586 72.7298C391.063 72.7298 390.564 72.7202 390.101 72.699C385.277 72.4793 379.566 72.2987 379.566 72.2987C379.566 72.2987 379.835 58.4598 379.694 56.2817C379.554 54.1037 380.743 50.2735 381.45 47.9857C382.111 45.846 383.069 44.1159 383.069 44.1159L384.607 43.2637C384.128 43.8458 383.235 51.3483 383.039 53.2508C383.039 53.2508 384.371 53.5923 387.338 53.7616C387.738 53.7845 388.275 53.7978 388.885 53.7978C391.106 53.7978 394.306 53.6208 395.468 53.0806C395.468 53.0806 396.123 50.1623 396.745 47.7601C397.383 45.2917 398.438 42.5932 398.438 42.5932ZM398.438 41.6653C398.064 41.6653 397.716 41.892 397.574 42.2553C397.53 42.3676 396.491 45.034 395.846 47.5278C395.38 49.3284 394.891 51.4373 394.676 52.3792C393.605 52.6742 391.359 52.8699 388.885 52.8699C388.313 52.8699 387.783 52.8574 387.391 52.8352C385.818 52.7455 384.719 52.6057 384.053 52.4994C384.396 49.4266 385.057 44.5479 385.381 43.7747C385.604 43.4367 385.584 42.9868 385.32 42.6696C385.138 42.4516 384.875 42.3356 384.606 42.3356C384.453 42.3356 384.299 42.3735 384.157 42.4518L382.619 43.304C382.467 43.3885 382.342 43.5137 382.258 43.6658C382.217 43.7397 381.245 45.5053 380.563 47.7113L380.546 47.7673C379.778 50.2533 378.618 54.0101 378.768 56.3409C378.905 58.4557 378.64 72.142 378.638 72.2799C378.628 72.7878 379.028 73.2091 379.536 73.2253C379.593 73.227 385.297 73.4081 390.059 73.6252C390.519 73.6461 391.033 73.6568 391.586 73.6568C396.63 73.6568 403.784 72.7981 404.086 72.7614C404.569 72.703 404.925 72.2814 404.902 71.7956C404.89 71.5645 404.625 66.1111 404.365 63.9252C404.053 61.2957 403.508 58.5807 403.485 58.4664C403.442 58.2532 403.326 58.0621 403.156 57.9262C403.14 57.9133 401.465 56.5543 400.193 54.6552C399.262 53.2641 399.374 52.5745 399.707 50.5271C399.779 50.0901 399.859 49.595 399.937 49.0365C400.395 45.7398 401.139 43.4214 401.146 43.3985C401.224 43.159 401.201 42.8982 401.083 42.6761C400.964 42.454 400.76 42.2895 400.518 42.2206L398.692 41.7002C398.607 41.6769 398.522 41.6653 398.438 41.6653Z" fill="#483E2E"/>
</g>
<mask id="mask14_61_767" style="mask-type:luminance" maskUnits="userSpaceOnUse" x="358" y="17" width="56" height="54">
<path d="M411.716 48.1668C411.716 60.5558 401.672 70.5993 389.283 70.5993C384.188 70.5993 379.489 68.9003 375.722 66.0378C375.366 65.767 372.537 66.9378 372.198 66.6467C367.406 62.5328 366.051 53.8041 366.051 53.8041C363.075 53.081 355.629 46.8549 359.689 39.4335C363.748 32.0117 384.667 17.2666 390.861 17.2666C395.507 17.2666 407.309 19.1597 410.889 23.9424C416.856 31.9136 411.716 40.4234 411.716 48.1668Z" fill="white"/>
</mask>
<g mask="url(#mask14_61_767)">
<path d="M400.908 56.3699L400.827 61.9166C400.827 61.9166 399.456 65.5484 398.729 69.9873C398.144 73.5674 397.842 75.5358 397.842 75.5358L400.424 77.6543C400.424 77.6543 404.781 66.3555 405.265 64.4386C405.749 62.5216 406.072 61.1094 406.153 59.1927C406.209 57.852 406.178 56.5477 406.154 55.8836C404.415 56.1484 402.669 56.3267 400.908 56.3699Z" fill="#F4B59C"/>
</g>
<mask id="mask15_61_767" style="mask-type:luminance" maskUnits="userSpaceOnUse" x="358" y="17" width="56" height="54">
<path d="M411.716 48.1668C411.716 60.5558 401.672 70.5993 389.283 70.5993C384.188 70.5993 379.489 68.9003 375.722 66.0378C375.366 65.767 372.537 66.9378 372.198 66.6467C367.406 62.5328 366.051 53.8041 366.051 53.8041C363.075 53.081 355.629 46.8549 359.689 39.4335C363.748 32.0117 384.667 17.2666 390.861 17.2666C395.507 17.2666 407.309 19.1597 410.889 23.9424C416.856 31.9136 411.716 40.4234 411.716 48.1668Z" fill="white"/>
</mask>
<g mask="url(#mask15_61_767)">
<path d="M406.156 56.4475C406.156 56.4475 406.233 57.2762 406.153 59.1929C406.072 61.1096 405.749 62.5221 405.265 64.4388C404.781 66.3555 400.424 77.6545 400.424 77.6545L397.842 75.536C397.842 75.536 398.144 73.5674 398.729 69.9875C399.455 65.5486 400.827 61.9168 400.827 61.9168L400.864 56.8669C400.864 56.8669 404.623 56.8512 406.156 56.4475ZM406.979 55.2718L405.92 55.5504C404.758 55.8565 401.873 55.9348 400.86 55.939L399.943 55.9429L399.936 56.8599L399.901 61.748C399.625 62.509 398.47 65.8284 397.814 69.8376C397.234 73.3813 396.928 75.3756 396.925 75.3953L396.845 75.9178L397.253 76.2531L399.836 78.3717L400.828 79.1857L401.29 77.9883C401.468 77.5249 405.673 66.6147 406.165 64.6661C406.647 62.7571 406.995 61.2497 407.08 59.2319C407.162 57.2751 407.084 56.398 407.08 56.3616L406.979 55.2718Z" fill="#483E2E"/>
</g>
<mask id="mask16_61_767" style="mask-type:luminance" maskUnits="userSpaceOnUse" x="358" y="17" width="56" height="54">
<path d="M411.716 48.1668C411.716 60.5558 401.672 70.5993 389.283 70.5993C384.188 70.5993 379.489 68.9003 375.722 66.0378C375.366 65.767 372.537 66.9378 372.198 66.6467C367.406 62.5328 366.051 53.8041 366.051 53.8041C363.075 53.081 355.629 46.8549 359.689 39.4335C363.748 32.0117 384.667 17.2666 390.861 17.2666C395.507 17.2666 407.309 19.1597 410.889 23.9424C416.856 31.9136 411.716 40.4234 411.716 48.1668Z" fill="white"/>
</mask>
<g mask="url(#mask16_61_767)">
<path d="M399.173 67.7638C400.474 62.893 401.329 61.5545 402.259 59.7324C402.259 59.7324 400.791 60.6305 399.97 62.0903C399.148 63.5501 398.28 68.3959 398.28 68.3959L399.173 67.7638Z" fill="#483E2E"/>
</g>
<mask id="mask17_61_767" style="mask-type:luminance" maskUnits="userSpaceOnUse" x="358" y="17" width="56" height="54">
<path d="M411.716 48.1668C411.716 60.5558 401.672 70.5993 389.283 70.5993C384.188 70.5993 379.489 68.9003 375.722 66.0378C375.366 65.767 372.537 66.9378 372.198 66.6467C367.406 62.5328 366.051 53.8041 366.051 53.8041C363.075 53.081 355.629 46.8549 359.689 39.4335C363.748 32.0117 384.667 17.2666 390.861 17.2666C395.507 17.2666 407.309 19.1597 410.889 23.9424C416.856 31.9136 411.716 40.4234 411.716 48.1668Z" fill="white"/>
</mask>
<g mask="url(#mask17_61_767)">
<path d="M383.667 56.4698L395.056 56.665L394.841 58.9568L388.691 60.4884L383.465 58.6596L383.667 56.4698Z" fill="#4D66C4"/>
</g>
<mask id="mask18_61_767" style="mask-type:luminance" maskUnits="userSpaceOnUse" x="358" y="17" width="56" height="54">
<path d="M411.716 48.1668C411.716 60.5558 401.672 70.5993 389.283 70.5993C384.188 70.5993 379.489 68.9003 375.722 66.0378C375.366 65.767 372.537 66.9378 372.198 66.6467C367.406 62.5328 366.051 53.8041 366.051 53.8041C363.075 53.081 355.629 46.8549 359.689 39.4335C363.748 32.0117 384.667 17.2666 390.861 17.2666C395.507 17.2666 407.309 19.1597 410.889 23.9424C416.856 31.9136 411.716 40.4234 411.716 48.1668Z" fill="white"/>
</mask>
<g mask="url(#mask18_61_767)">
<path d="M388.606 36.9041C388.974 37.3497 389.944 38.6053 390.164 39.5565C390.164 39.5565 390.348 39.0246 390.372 38.1113C390.395 37.2268 390.169 36.6986 390.169 36.6986L388.606 36.9041Z" fill="#483E2E"/>
</g>
<defs>
<linearGradient id="paint0_linear_61_767" x1="388.977" y1="21.6234" x2="388.977" y2="90" gradientUnits="userSpaceOnUse">
<stop stop-color="#DD3E34"/>
<stop offset="1" stop-color="#95251E"/>
</linearGradient>
</defs>
</svg>
